<?xml version="1.0" encoding="utf-8"?>
<!-- Generator: Adobe Illustrator 24.0.1, SVG Export Plug-In . SVG Version: 6.00 Build 0)  -->
<svg version="1.1" id="Layer_1" xmlns="http://www.w3.org/2000/svg" xmlns:xlink="http://www.w3.org/1999/xlink" x="0px" y="0px"
	 viewBox="0 0 48.2 9.1" style="enable-background:new 0 0 48.2 9.1;" xml:space="preserve">
<g>
	<path d="M2.7,9.1C1.6,9.1,0.6,8.7,0,7.9l0.2-0.2c0.3,0.4,0.7,0.7,1.1,0.9c0.4,0.2,0.9,0.3,1.4,0.3c0.6,0,1.2-0.1,1.6-0.4
		c0.4-0.3,0.6-0.7,0.6-1.2c0-0.2,0-0.4-0.1-0.6S4.6,6.4,4.4,6.3S4.1,6.2,3.9,6.1C3.7,6,3.4,6,3.2,6l-1-0.1c-0.3,0-0.5-0.1-0.8-0.2
		S1,5.5,0.8,5.4C0.7,5.3,0.5,5.1,0.4,4.9C0.3,4.8,0.3,4.5,0.3,4.3c0-0.3,0.1-0.6,0.2-0.8C0.6,3.3,0.7,3.1,0.9,3
		c0.2-0.1,0.4-0.2,0.7-0.3c0.3-0.1,0.5-0.1,0.9-0.1c0.3,0,0.6,0,0.8,0.1S3.8,2.8,4,2.9C4.1,3,4.3,3.1,4.5,3.2s0.3,0.2,0.4,0.4
		L4.7,3.8C4.6,3.6,4.4,3.5,4.3,3.4C4.2,3.3,4,3.2,3.9,3.1C3.7,3,3.5,3,3.3,2.9C3,2.9,2.8,2.8,2.5,2.8c-0.6,0-1.1,0.1-1.4,0.3
		C0.7,3.4,0.5,3.8,0.5,4.2c0,0.2,0,0.4,0.1,0.6C0.7,5,0.8,5.1,1,5.2s0.3,0.2,0.5,0.2C1.7,5.5,2,5.5,2.2,5.6l1,0.1
		c0.3,0,0.5,0.1,0.8,0.2C4.2,5.9,4.4,6,4.6,6.1C4.7,6.3,4.9,6.4,5,6.6C5.1,6.8,5.1,7,5.1,7.3c0,0.3-0.1,0.6-0.2,0.8S4.6,8.5,4.4,8.6
		C4.2,8.8,4,8.9,3.7,9C3.4,9,3.1,9.1,2.7,9.1z"/>
	<path d="M7.5,8.7H10V3H7.5V2.7h2.7v6h2.3v0.2h-5V8.7z M10.1,0.6c-0.1,0-0.2,0-0.3-0.1C9.8,0.5,9.7,0.5,9.7,0.4V0.3
		c0-0.1,0-0.1,0.1-0.2C9.9,0,10,0,10.1,0s0.2,0,0.3,0.1c0.1,0.1,0.1,0.1,0.1,0.2v0.1c0,0.1,0,0.1-0.1,0.2
		C10.3,0.6,10.2,0.6,10.1,0.6z"/>
	<path d="M16.5,8.9c-0.2,0-0.3-0.1-0.3-0.3V3h-2.4V2.7h2.1c0.2,0,0.3-0.1,0.3-0.3V0.6h0.3v2.2h3.2V3h-3.2v5.7h3.2v0.2H16.5z"/>
	<path d="M24.2,9.1c-0.8,0-1.4-0.3-1.9-0.8s-0.7-1.4-0.7-2.4c0-1.1,0.2-1.9,0.7-2.4c0.4-0.5,1.1-0.8,1.9-0.8c0.4,0,0.8,0.1,1.1,0.2
		s0.6,0.4,0.8,0.6s0.4,0.6,0.5,1c0.1,0.4,0.2,0.8,0.2,1.3v0.1h-4.8v0.3c0,0.8,0.2,1.5,0.6,2c0.4,0.5,1,0.7,1.7,0.7
		c0.5,0,1-0.1,1.3-0.4c0.4-0.2,0.6-0.6,0.8-1.1l0.2,0.1c-0.2,0.5-0.5,0.9-0.9,1.2S24.8,9.1,24.2,9.1z M24.1,2.8
		c-0.7,0-1.3,0.2-1.7,0.7c-0.4,0.5-0.6,1.1-0.6,2v0h4.5v0c0-0.8-0.2-1.5-0.6-2S24.9,2.8,24.1,2.8z"/>
	<path d="M28.4,8.9V2.7h0.9v0.7h0c0.1-0.2,0.2-0.4,0.4-0.6c0.2-0.2,0.4-0.3,0.8-0.3c0.4,0,0.6,0.1,0.8,0.3c0.2,0.2,0.3,0.4,0.3,0.7
		h0c0.1-0.3,0.3-0.5,0.5-0.7s0.5-0.3,0.9-0.3c0.5,0,0.8,0.2,1,0.5s0.3,0.9,0.3,1.5v4.3h-0.9V4.8c0-0.5-0.1-0.9-0.2-1.1
		c-0.1-0.2-0.3-0.3-0.6-0.3c-0.3,0-0.5,0.1-0.6,0.2c-0.2,0.2-0.2,0.4-0.2,0.8v4.5h-0.9V4.8c0-0.5-0.1-0.9-0.2-1.1
		c-0.1-0.2-0.3-0.3-0.6-0.3c-0.3,0-0.5,0.1-0.6,0.2c-0.2,0.2-0.2,0.4-0.2,0.8v4.5H28.4z"/>
	<path d="M38.5,9.1c-0.4,0-0.8-0.1-1.2-0.2c-0.3-0.2-0.6-0.4-0.9-0.7c-0.2-0.3-0.4-0.6-0.6-1s-0.2-0.8-0.2-1.3
		c0-0.5,0.1-0.9,0.2-1.3c0.1-0.4,0.3-0.7,0.6-1C36.7,3.2,37,3,37.3,2.8c0.3-0.2,0.7-0.2,1.2-0.2s0.8,0.1,1.2,0.2s0.6,0.4,0.9,0.7
		c0.2,0.3,0.4,0.6,0.6,1c0.1,0.4,0.2,0.8,0.2,1.3c0,0.5-0.1,0.9-0.2,1.3s-0.3,0.7-0.6,1c-0.2,0.3-0.5,0.5-0.9,0.7S38.9,9.1,38.5,9.1
		z M38.5,8.3c0.5,0,1-0.2,1.3-0.5c0.3-0.3,0.5-0.8,0.5-1.5V5.4c0-0.7-0.2-1.2-0.5-1.5S39,3.4,38.5,3.4c-0.5,0-1,0.2-1.3,0.5
		c-0.3,0.3-0.5,0.8-0.5,1.5v0.9c0,0.7,0.2,1.2,0.5,1.5C37.5,8.1,38,8.3,38.5,8.3z"/>
	<path d="M47.2,7.9L47.2,7.9c-0.4,0.8-1.1,1.2-2,1.2c-0.8,0-1.4-0.3-1.8-0.9c-0.4-0.6-0.6-1.4-0.6-2.4c0-1,0.2-1.8,0.6-2.4
		c0.4-0.6,1-0.9,1.8-0.9c0.9,0,1.5,0.4,1.9,1.2h0V0.1h1v8.9h-1V7.9z M45.6,8.2c0.2,0,0.4,0,0.6-0.1c0.2-0.1,0.4-0.1,0.5-0.2
		c0.1-0.1,0.3-0.2,0.3-0.4c0.1-0.2,0.1-0.3,0.1-0.5V4.7c0-0.2,0-0.4-0.1-0.5C47,4,46.9,3.9,46.7,3.8c-0.1-0.1-0.3-0.2-0.5-0.2
		s-0.4-0.1-0.6-0.1c-0.6,0-1,0.2-1.3,0.5c-0.3,0.3-0.5,0.8-0.5,1.4v1.1c0,0.6,0.2,1,0.5,1.4C44.6,8.1,45.1,8.2,45.6,8.2z"/>
</g>
</svg>
